<svg height="512pt" viewBox="0 -11 512 512" width="512pt" xmlns="http://www.w3.org/2000/svg"><path d="m512 80v113c0 11.046875-8.953125 20-20 20s-20-8.953125-20-20v-113c0-22.054688-17.945312-40-40-40h-352c-22.054688 0-40 17.945312-40 40v311c0 22.054688 17.945312 40 40 40h186c11.046875 0 20 8.953125 20 20s-8.953125 20-20 20h-186c-44.113281 0-80-35.886719-80-80v-311c0-44.113281 35.886719-80 80-80h352c44.113281 0 80 35.886719 80 80zm-415 271c-11.046875 0-20 8.953125-20 20s8.953125 20 20 20 20-8.953125 20-20-8.953125-20-20-20zm80 0c-11.046875 0-20 8.953125-20 20s8.953125 20 20 20 20-8.953125 20-20-8.953125-20-20-20zm80 0c-11.046875 0-20 8.953125-20 20s8.953125 20 20 20 20-8.953125 20-20-8.953125-20-20-20zm-140-251c0-11.046875-8.953125-20-20-20s-20 8.953125-20 20 8.953125 20 20 20 20-8.953125 20-20zm80 0c0-11.046875-8.953125-20-20-20s-20 8.953125-20 20 8.953125 20 20 20 20-8.953125 20-20zm80 0c0-11.046875-8.953125-20-20-20s-20 8.953125-20 20 8.953125 20 20 20 20-8.953125 20-20zm80 0c0-11.046875-8.953125-20-20-20s-20 8.953125-20 20 8.953125 20 20 20 20-8.953125 20-20zm80 0c0-11.046875-8.953125-20-20-20s-20 8.953125-20 20 8.953125 20 20 20 20-8.953125 20-20zm75 186.667969v12.917969c0 26.605468-26.722656 48.757812-46.234375 64.933593-2.367187 1.964844-4.625 3.835938-6.582031 5.511719 1.839844 1.5625 3.921875 3.289062 6.097656 5.09375 19.714844 16.332031 46.71875 38.699219 46.71875 65.289062v12.917969c0 20.21875-16.457031 36.667969-36.6875 36.667969h-112.625c-20.230469 0-36.6875-16.449219-36.6875-36.667969v-12.917969c0-26.988281 27.742188-50.351562 48.003906-67.410156 1.457032-1.230468 2.863282-2.414062 4.167969-3.523437-1.800781-1.53125-3.824219-3.207031-5.9375-4.960938-19.511719-16.175781-46.234375-38.328125-46.234375-64.933593v-12.917969c0-20.21875 16.457031-36.667969 36.6875-36.667969h112.628906c20.226563 0 36.683594 16.449219 36.683594 36.667969zm-40 3.332031h-106v9.585938c0 .035156.191406 3.90625 8.394531 12.941406 6.714844 7.394531 15.5625 14.726562 23.367188 21.195312 2.957031 2.453125 5.746093 4.765625 8.257812 6.949219 8.007813 6.957031 12.980469 17.984375 12.980469 28.773437 0 11-4.640625 21.601563-12.414062 28.355469-2.082032 1.8125-4.382813 3.746094-6.816407 5.796875-7.644531 6.4375-17.15625 14.449219-24.34375 22.375-9.144531 10.085938-9.421875 14.414063-9.425781 14.457032v9.570312h106v-9.585938c-.003906-.023437-.277344-4.003906-8.714844-13.210937-6.8125-7.433594-15.6875-14.789063-23.519531-21.273437-2.996094-2.484376-5.824219-4.828126-8.355469-7.023438-9.148437-7.953125-12.410156-20.433594-12.410156-29.460938 0-10.789062 4.972656-21.8125 12.980469-28.773437 2.511719-2.183594 5.300781-4.496094 8.257812-6.945313 7.804688-6.472656 16.652344-13.804687 23.363281-21.199218 8.203126-9.035156 8.398438-12.90625 8.398438-12.941406zm0 0"/></svg>