<svg xmlns="http://www.w3.org/2000/svg" xmlns:xlink="http://www.w3.org/1999/xlink" version="1.1" x="0px" y="0px" viewBox="0 0 20 25" enable-background="new 0 0 20 20" xml:space="preserve"><g><path fill="#000000" d="M19.1,13.9L16,10.8V0H0v20h16v-1.2c1.5,0.5,2.6-0.1,3.1-0.7C19.7,17.6,20.8,15.8,19.1,13.9z M14,18H2V2h12   v6.8L13.2,8H9v4.2l5,5V18z M17.7,16.7c-0.4,0.4-1,0.4-1.4,0L11,11.4V10h1.4l5.3,5.3C18.3,15.8,17.9,16.5,17.7,16.7z"/><rect x="4" y="4" fill="#000000" width="8" height="2"/><rect x="4" y="8" fill="#000000" width="3" height="2"/></g><text x="0" y="35" fill="#000000" font-size="5px" font-weight="bold" font-family="'Helvetica Neue', Helvetica, Arial-Unicode, Arial, Sans-serif">Created by ProSymbols</text><text x="0" y="40" fill="#000000" font-size="5px" font-weight="bold" font-family="'Helvetica Neue', Helvetica, Arial-Unicode, Arial, Sans-serif">from the Noun Project</text></svg>